name C:\Users\u0101727\Documents\MyRepositories\upper-imu-dc\OpenSim\subject0\MA\ResultsMA\grid_4nodes_9dim\angles_24.mot
datacolumns 10
datarows 33
range 2450.01000000 2450.33000000
endheader 
time	clav_prot	clav_elev	scapula_abduction	scapula_elevation	scapula_upward_rot	scapula_winging	plane_elv	shoulder_elv	axial_rot	
       2450.01000000	        -50.00000000	         10.00000000	        -40.00000000	        -10.00000000	         30.00000000	         10.00000000	         90.00000000	         63.33333333	         90.00000000	
       2450.02000000	        -38.33333333	         10.00000000	        -40.00000000	        -10.00000000	         30.00000000	         10.00000000	         90.00000000	         63.33333333	         90.00000000	
       2450.03000000	        -26.66666667	         10.00000000	        -40.00000000	        -10.00000000	         30.00000000	         10.00000000	         90.00000000	         63.33333333	         90.00000000	
       2450.04000000	        -15.00000000	         10.00000000	        -40.00000000	        -10.00000000	         30.00000000	         10.00000000	         90.00000000	         63.33333333	         90.00000000	
       2450.05000000	        -50.00000000	         20.00000000	        -40.00000000	        -10.00000000	         30.00000000	         10.00000000	         90.00000000	         63.33333333	         90.00000000	
       2450.06000000	        -38.33333333	         20.00000000	        -40.00000000	        -10.00000000	         30.00000000	         10.00000000	         90.00000000	         63.33333333	         90.00000000	
       2450.07000000	        -26.66666667	         20.00000000	        -40.00000000	        -10.00000000	         30.00000000	         10.00000000	         90.00000000	         63.33333333	         90.00000000	
       2450.08000000	        -15.00000000	         20.00000000	        -40.00000000	        -10.00000000	         30.00000000	         10.00000000	         90.00000000	         63.33333333	         90.00000000	
       2450.09000000	        -50.00000000	        -10.00000000	        -21.66666667	        -10.00000000	         30.00000000	         10.00000000	         90.00000000	         63.33333333	         90.00000000	
       2450.10000000	        -38.33333333	        -10.00000000	        -21.66666667	        -10.00000000	         30.00000000	         10.00000000	         90.00000000	         63.33333333	         90.00000000	
       2450.11000000	        -26.66666667	        -10.00000000	        -21.66666667	        -10.00000000	         30.00000000	         10.00000000	         90.00000000	         63.33333333	         90.00000000	
       2450.12000000	        -15.00000000	        -10.00000000	        -21.66666667	        -10.00000000	         30.00000000	         10.00000000	         90.00000000	         63.33333333	         90.00000000	
       2450.13000000	        -50.00000000	          0.00000000	        -21.66666667	        -10.00000000	         30.00000000	         10.00000000	         90.00000000	         63.33333333	         90.00000000	
       2450.14000000	        -38.33333333	          0.00000000	        -21.66666667	        -10.00000000	         30.00000000	         10.00000000	         90.00000000	         63.33333333	         90.00000000	
       2450.15000000	        -26.66666667	          0.00000000	        -21.66666667	        -10.00000000	         30.00000000	         10.00000000	         90.00000000	         63.33333333	         90.00000000	
       2450.16000000	        -15.00000000	          0.00000000	        -21.66666667	        -10.00000000	         30.00000000	         10.00000000	         90.00000000	         63.33333333	         90.00000000	
       2450.17000000	        -50.00000000	         10.00000000	        -21.66666667	        -10.00000000	         30.00000000	         10.00000000	         90.00000000	         63.33333333	         90.00000000	
       2450.18000000	        -38.33333333	         10.00000000	        -21.66666667	        -10.00000000	         30.00000000	         10.00000000	         90.00000000	         63.33333333	         90.00000000	
       2450.19000000	        -26.66666667	         10.00000000	        -21.66666667	        -10.00000000	         30.00000000	         10.00000000	         90.00000000	         63.33333333	         90.00000000	
       2450.20000000	        -15.00000000	         10.00000000	        -21.66666667	        -10.00000000	         30.00000000	         10.00000000	         90.00000000	         63.33333333	         90.00000000	
       2450.21000000	        -50.00000000	         20.00000000	        -21.66666667	        -10.00000000	         30.00000000	         10.00000000	         90.00000000	         63.33333333	         90.00000000	
       2450.22000000	        -38.33333333	         20.00000000	        -21.66666667	        -10.00000000	         30.00000000	         10.00000000	         90.00000000	         63.33333333	         90.00000000	
       2450.23000000	        -26.66666667	         20.00000000	        -21.66666667	        -10.00000000	         30.00000000	         10.00000000	         90.00000000	         63.33333333	         90.00000000	
       2450.24000000	        -15.00000000	         20.00000000	        -21.66666667	        -10.00000000	         30.00000000	         10.00000000	         90.00000000	         63.33333333	         90.00000000	
       2450.25000000	        -50.00000000	        -10.00000000	         -3.33333333	        -10.00000000	         30.00000000	         10.00000000	         90.00000000	         63.33333333	         90.00000000	
       2450.26000000	        -38.33333333	        -10.00000000	         -3.33333333	        -10.00000000	         30.00000000	         10.00000000	         90.00000000	         63.33333333	         90.00000000	
       2450.27000000	        -26.66666667	        -10.00000000	         -3.33333333	        -10.00000000	         30.00000000	         10.00000000	         90.00000000	         63.33333333	         90.00000000	
       2450.28000000	        -15.00000000	        -10.00000000	         -3.33333333	        -10.00000000	         30.00000000	         10.00000000	         90.00000000	         63.33333333	         90.00000000	
       2450.29000000	        -50.00000000	          0.00000000	         -3.33333333	        -10.00000000	         30.00000000	         10.00000000	         90.00000000	         63.33333333	         90.00000000	
       2450.30000000	        -38.33333333	          0.00000000	         -3.33333333	        -10.00000000	         30.00000000	         10.00000000	         90.00000000	         63.33333333	         90.00000000	
       2450.31000000	        -26.66666667	          0.00000000	         -3.33333333	        -10.00000000	         30.00000000	         10.00000000	         90.00000000	         63.33333333	         90.00000000	
       2450.32000000	        -15.00000000	          0.00000000	         -3.33333333	        -10.00000000	         30.00000000	         10.00000000	         90.00000000	         63.33333333	         90.00000000	
       2450.33000000	        -50.00000000	         10.00000000	         -3.33333333	        -10.00000000	         30.00000000	         10.00000000	         90.00000000	         63.33333333	         90.00000000	
